<?xml version="1.0" encoding="UTF-8"?>
<svg id="Calque_3" data-name="Calque 3" xmlns="http://www.w3.org/2000/svg" viewBox="0 0 226.39 221.66" role="img" aria-label="BioInteraction Algérie icon">
  <defs>
    <style>
      .cls-1 {
        fill: #00a97e;
      }
    </style>
  </defs>
  <g id="Calque_1" data-name="Calque 1">
    <g>
      <path class="cls-1" d="M189.62,169.31c-1.05,1.88-3.39,3.35-4.46,2.94s-3.11-2.85-2.61-3.88,2.36-2.25,3.38-2.52c1.37-.37,4.48,2.06,3.69,3.47Z"/>
      <path class="cls-1" d="M77.44,190.18c-8.44-4.91-19.99-9.92-23.43-3.79-1.31,2.33-1.62,6.25-.89,8.77,3.51,12.21-2.8,22.7-13.46,25.7-12.01,3.38-23.78-4.38-25.28-16.89-.8-6.65,3.1-13.47,7.56-16.73,13.24-9.65,22.41,1.26,29.8-4.19,6.76-4.98-1.76-15.23-5.89-22.53-8.87-15.65-10.2-34.44-5.08-51.72,1.33-4.5,3.05-10.12-1.69-13.75-2.31-1.77-8.48-.01-11.27,1.54-6.19,3.45-11.42,3.84-18.01.85-4.73-2.15-8.99-7.87-9.71-14.29-.77-6.82,3.07-12.02,8.51-15.78,4.76-3.29,10.63-4.12,16.35-1.49,13.41,6.15,9.1,15.77,13.56,24.89,4.92,3.63,11.17.39,14.42-3.93,5-6.65,10.72-11.99,18.03-16.1,4.22-2.37,8.76-4.97,13.34-6.53,12.37-4.22,24.76-4.37,38.1-2.32l9.76-17.34-6.82-4.56c-1.05-.7.08-4.5,1.14-5.1,1.24-.71,3.81-.57,5.56.36l46.46,24.87c1.41.76,1.28,4.36.01,5.71-3.06,3.24-6.07-1.35-10.45-1.15l-9.5,17c8.2,7.61,14.46,18.4,17.38,29.14.93,3.42,4.57,5.23,7.91,5.42s5.73-2.62,7.2-6.19c3.42-8.34,11.75-13.57,20.67-12,8.04,1.42,15.51,8.87,14.58,18.15-.22,2.16-1.5,6.41-2.41,8.44-4.6,7.03-14.04,10.38-21.8,6.98-5.62-2.46-9.29-7.36-13.9-11.33-2.35-2.02-8.62,1.43-9,4.29l-1.89,14.48c-2.33,17.85-11.93,33.44-26.42,43.84l-10.42,6.63c-15.04,9.57-46.67,10.15-63.02.64ZM146.73,176.43c28.14-21.99,32.18-61.76,7.11-88.67-1.54-1.66-3.5-3.58-3.71-5.14-.24-1.74,1.07-4.8,2.27-6.13l9.07-16.5-22.16-11.89c-4.12,7.86-8.11,15.2-12.94,22.3-8.88-1.39-16.47-2.74-25.18-1.8-28.47,3.07-51.15,24.49-55.06,53.17-2.13,15.59,2.82,30.81,12.24,43.62,9.65,13.12,24.87,21.04,40.85,23.74s34.95-2.88,47.52-12.7Z"/>
      <path class="cls-1" d="M220.06,155.77c-1.75,7.05-8.51,10.99-14.55,8.86-6.4-2.25-9.38-9.92-6.23-15.76s11.22-7.78,16.43-3.19c3.07,2.7,5.3,6.22,4.34,10.09Z"/>
      <path class="cls-1" d="M173.98,19.29c-5.18,3.51-10.69,3.03-14.51-.65s-4.75-9.85-1.55-14.18,8.77-5.7,14.56-3.3c2.88,1.19,5.16,4.96,5.71,8.01.63,3.52-.95,7.92-4.2,10.13Z"/>
      <path class="cls-1" d="M45.47,63.57c-5.47,2.19-11.58-1.06-13.17-6.12-1.75-5.58,2.13-11.39,8.04-12.43,5.31-.93,9.91,2.11,11.43,7.35,1.16,4-1.73,9.38-6.3,11.21Z"/>
      <path class="cls-1" d="M27.14,172.42c-.78,3.38-3.28,6.56-5.54,7.06-3.15.69-6.5-.47-8.87-2.76-2.8-2.71-2.02-6.47-.08-9.54,1.83-2.89,4.93-3.83,8.87-2.97,2.99.65,6.67,3.69,5.62,8.21Z"/>
      <path class="cls-1" d="M154.73,25.36c2.39-.63,5.62,1.58,6.28,3.72.95,3.12-.62,5.86-3.87,6.69-2.67.68-5.51-.66-6.62-3.55-.97-2.54.92-6,4.22-6.86Z"/>
      <path class="cls-1" d="M96.68,180.12c-26.3-5.65-44.98-29.66-42.22-56.78.23-1.44,4.37-.77,5.65-.19,18.24,8.16,38.36,9.47,57.14,3.05,11.47-6.88,23.61-10.62,37.09-11.35,1.9.15,5.01.67,6.09,1.65s1.91,3.78,2.11,5.63c1.91,17.22-4.14,33.09-16.84,44.71s-30.57,17.24-49.04,13.28Z"/>
    </g>
  </g>
</svg>
